<mxfile host="app.diagrams.net" modified="2024-12-29T19:44:39.902Z" agent="Mozilla/5.0 (Windows NT 10.0; Win64; x64) AppleWebKit/537.36 (KHTML, like Gecko) Chrome/131.0.0.0 Safari/537.36" version="24.6.3" etag="au5G-iRjfDup50nW05Yv" type="github">
  <diagram name="Page-1" id="UMfAkbX5SdZGAti0Vuvp">
    <mxGraphModel>
      <root>
        <mxCell id="0" />
        <mxCell id="1" parent="0" />
      </root>
    </mxGraphModel>
  </diagram>
</mxfile>
